<svg width="16" height="16" viewBox="0 0 16 16" fill="none" xmlns="http://www.w3.org/2000/svg">
<path fill-rule="evenodd" clip-rule="evenodd" d="M8 0C3.5816 0 0 3.5816 0 8C0 12.4184 3.5816 16 8 16C12.4184 16 16 12.4184 16 8C16 3.5816 12.4184 0 8 0ZM12.1528 4.8592C12.1998 4.71824 12.2066 4.56698 12.1725 4.42236C12.1384 4.27775 12.0646 4.14549 11.9596 4.04043C11.8545 3.93536 11.7223 3.86163 11.5776 3.8275C11.433 3.79337 11.2818 3.80019 11.1408 3.8472L6.0496 5.544C5.93188 5.58329 5.82492 5.64942 5.73717 5.73717C5.64942 5.82492 5.58329 5.93188 5.544 6.0496L3.8472 11.1408C3.80019 11.2818 3.79337 11.433 3.8275 11.5776C3.86163 11.7223 3.93536 11.8545 4.04043 11.9596C4.14549 12.0646 4.27775 12.1384 4.42236 12.1725C4.56698 12.2066 4.71824 12.1998 4.8592 12.1528L9.9504 10.456C10.0682 10.4166 10.1752 10.3504 10.263 10.2625C10.3507 10.1746 10.4168 10.0675 10.456 9.9496L12.1528 4.8592ZM8 8.8C8.21217 8.8 8.41566 8.71571 8.56569 8.56569C8.71571 8.41566 8.8 8.21217 8.8 8C8.8 7.78783 8.71571 7.58434 8.56569 7.43431C8.41566 7.28429 8.21217 7.2 8 7.2C7.78783 7.2 7.58434 7.28429 7.43431 7.43431C7.28429 7.58434 7.2 7.78783 7.2 8C7.2 8.21217 7.28429 8.41566 7.43431 8.56569C7.58434 8.71571 7.78783 8.8 8 8.8Z" fill="#787887"/>
</svg>
