<svg width="16" height="16" viewBox="0 0 16 16" fill="none" xmlns="http://www.w3.org/2000/svg">
<path d="M16 0.592676V10.9568C16.0011 11.5523 15.7872 12.131 15.3923 12.6009C14.9973 13.0709 14.444 13.405 13.8204 13.5504C13.1967 13.6957 12.5385 13.6437 11.9504 13.4028C11.3623 13.1619 10.878 12.7459 10.5747 12.2209C10.2713 11.6958 10.1662 11.0919 10.2761 10.5052C10.3859 9.91853 10.7045 9.38268 11.1811 8.9829C11.6577 8.58312 12.265 8.34235 12.9064 8.29888C13.5477 8.25542 14.1864 8.41175 14.7208 8.74301V4.31206L5.76634 6.38488V13.3257C5.76746 13.9212 5.55354 14.4999 5.1586 14.9698C4.76366 15.4398 4.21038 15.774 3.58673 15.9193C2.96308 16.0646 2.30487 16.0127 1.71676 15.7718C1.12865 15.5309 0.644396 15.1148 0.34101 14.5898C0.0376244 14.0648 -0.0674803 13.4609 0.0424085 12.8742C0.152297 12.2875 0.470871 11.7516 0.947473 11.3518C1.42408 10.9521 2.03134 10.7113 2.67272 10.6678C3.31409 10.6244 3.95275 10.7807 4.48714 11.112V2.96162C4.48717 2.82954 4.53489 2.70126 4.62273 2.59719C4.71057 2.49312 4.83347 2.41924 4.97188 2.3873L15.2055 0.0183566C15.2997 -0.00402868 15.3982 -0.00596793 15.4933 0.0126901C15.5884 0.0313482 15.6776 0.0700992 15.7539 0.125921C15.8305 0.18135 15.8924 0.252176 15.935 0.333041C15.9777 0.413906 15.9999 0.50269 16 0.592676Z" fill="#787887"/>
</svg>
