<svg width="4" height="19" viewBox="0 0 4 19" fill="none" xmlns="http://www.w3.org/2000/svg">
<path d="M6.03823e-07 2.12806C6.27647e-07 1.54389 0.184915 1.04317 0.554745 0.625901C0.944039 0.208634 1.43066 -2.7359e-08 2.0146 0C2.57908 2.6447e-08 3.04623 0.208634 3.41606 0.625901C3.80535 1.04317 4 1.54389 4 2.12806C4 2.71224 3.81509 3.20253 3.44526 3.59893C3.07543 3.99533 2.59854 4.19354 2.0146 4.19354C1.43066 4.19354 0.944039 3.9849 0.554745 3.56763C0.184915 3.17123 5.80851e-07 2.69137 6.03823e-07 2.12806Z" fill="#24242E" fill-opacity="0.2"/>
<path d="M3.01912e-07 9.5313C3.25735e-07 8.94712 0.184915 8.4464 0.554745 8.02913C0.944039 7.61187 1.43066 7.40323 2.0146 7.40323C2.57908 7.40323 3.04623 7.61187 3.41606 8.02913C3.80535 8.4464 4 8.94712 4 9.5313C4 10.1155 3.81509 10.6058 3.44526 11.0022C3.07543 11.3986 2.59854 11.5968 2.0146 11.5968C1.43066 11.5968 0.944039 11.3881 0.554745 10.9709C0.184915 10.5745 2.78939e-07 10.0946 3.01912e-07 9.5313Z" fill="#24242E" fill-opacity="0.2"/>
<path d="M0 16.9345C2.38232e-08 16.3504 0.184915 15.8496 0.554744 15.4324C0.944039 15.0151 1.43066 14.8065 2.0146 14.8065C2.57908 14.8065 3.04623 15.0151 3.41606 15.4324C3.80535 15.8496 4 16.3504 4 16.9345C4 17.5187 3.81508 18.009 3.44526 18.4054C3.07543 18.8018 2.59854 19 2.0146 19C1.43066 19 0.944039 18.7914 0.554744 18.3741C0.184915 17.9777 -2.29724e-08 17.4978 0 16.9345Z" fill="#24242E" fill-opacity="0.2"/>
</svg>
