<svg width="16" height="16" viewBox="0 0 16 16" fill="none" xmlns="http://www.w3.org/2000/svg">
<path d="M0 3.90146V12.6282C0 13.4317 0.334784 14.1459 0.870439 14.7038C1.40609 15.2395 2.09798 15.5296 2.90146 15.5296H7.27598V13.7218H2.90146C2.29885 13.7218 1.83015 13.2308 1.83015 12.6282V3.90146C1.83015 3.29885 2.29885 2.83015 2.90146 2.83015H7.27598V1H2.90146C2.09798 1 1.40609 1.31247 0.870439 1.84812C0.334784 2.40609 0 3.09798 0 3.90146ZM4.79857 6.5351V10.0169C4.79857 10.4186 5.15568 10.7534 5.55742 10.7534H9.59715V13.4986C9.59715 13.7441 9.73106 13.945 9.95425 14.0566C10.0435 14.0789 10.1328 14.0789 10.1774 14.0789C10.3337 14.0789 10.4676 14.0343 10.5792 13.9227L15.8241 8.67772C16.0696 8.47685 16.0473 8.07511 15.8241 7.85192L10.5792 2.62928C10.2667 2.2945 9.59715 2.49537 9.59715 3.03102V5.79857H5.55742C5.15568 5.79857 4.79857 6.13336 4.79857 6.5351Z" fill="#787887"/>
</svg>
