<svg width="13" height="16" viewBox="0 0 13 16" fill="none" xmlns="http://www.w3.org/2000/svg">
<path d="M0.619072 15.5C0.454884 15.5 0.297421 15.4342 0.181323 15.3169C0.0652247 15.1997 1.27119e-06 15.0408 1.2567e-06 14.875L5.46158e-08 1.12473C4.86614e-05 1.01498 0.028721 0.90718 0.0831331 0.812168C0.137545 0.717156 0.215778 0.638284 0.309965 0.583485C0.404151 0.528686 0.510969 0.499893 0.619676 0.5C0.728383 0.500108 0.835145 0.529112 0.929225 0.584097L12.6916 7.45923C12.7854 7.51417 12.8632 7.59303 12.9174 7.68791C12.9715 7.78279 13 7.89036 13 7.99986C13 8.10936 12.9715 8.21693 12.9174 8.31181C12.8632 8.40669 12.7854 8.48555 12.6916 8.5405L0.929226 15.4156C0.835018 15.4709 0.728017 15.5 0.619072 15.5Z" fill="#4343EF"/>
</svg>
