<svg width="16" height="16" viewBox="0 0 16 16" fill="none" xmlns="http://www.w3.org/2000/svg">
<path d="M15.6129 3.86902C15.3646 3.30759 15.0067 2.79882 14.5591 2.3712C14.1111 1.94231 13.583 1.60147 13.0033 1.36723C12.4023 1.12337 11.7577 0.99855 11.1068 1.00001C10.1938 1.00001 9.30292 1.24422 8.52876 1.70551C8.34355 1.81585 8.1676 1.93705 8.00092 2.06911C7.83423 1.93705 7.65828 1.81585 7.47308 1.70551C6.69892 1.24422 5.80807 1.00001 4.895 1.00001C4.23752 1.00001 3.60041 1.12302 2.99849 1.36723C2.41694 1.6024 1.89281 1.94067 1.44276 2.3712C0.994552 2.79834 0.636513 3.30723 0.388933 3.86902C0.131497 4.45332 0 5.07379 0 5.71235C0 6.31473 0.12594 6.94244 0.375969 7.58101C0.585252 8.11465 0.885287 8.66819 1.26866 9.22716C1.87614 10.1117 2.71142 11.0343 3.74858 11.9695C5.46729 13.5198 7.16934 14.5907 7.24157 14.6341L7.68051 14.9091C7.87498 15.0303 8.125 15.0303 8.31947 14.9091L8.75841 14.6341C8.83064 14.5889 10.5308 13.5198 12.2514 11.9695C13.2886 11.0343 14.1238 10.1117 14.7313 9.22716C15.1147 8.66819 15.4166 8.11465 15.624 7.58101C15.874 6.94244 16 6.31473 16 5.71235C16.0018 5.07379 15.8703 4.45332 15.6129 3.86902Z" fill="#787887"/>
</svg>
