<svg width="24" height="24" viewBox="0 0 24 24" fill="none" xmlns="http://www.w3.org/2000/svg">
<rect width="24" height="24" rx="12" fill="#4343EF"/>
<path d="M17 6.44451V14.2176C17.0008 14.6642 16.8404 15.0982 16.5442 15.4507C16.248 15.8031 15.833 16.0538 15.3653 16.1628C14.8975 16.2717 14.4039 16.2328 13.9628 16.0521C13.5217 15.8714 13.1585 15.5594 12.931 15.1656C12.7035 14.7719 12.6246 14.319 12.707 13.8789C12.7895 13.4389 13.0284 13.037 13.3858 12.7372C13.7433 12.4373 14.1987 12.2568 14.6798 12.2242C15.1608 12.1916 15.6398 12.3088 16.0406 12.5573V9.23405L9.32476 10.7887V15.9943C9.32559 16.4409 9.16515 16.8749 8.86895 17.2274C8.57275 17.5798 8.15778 17.8305 7.69005 17.9395C7.22231 18.0485 6.72865 18.0095 6.28757 17.8288C5.84648 17.6482 5.4833 17.3361 5.25576 16.9423C5.02822 16.5486 4.94939 16.0957 5.03181 15.6556C5.11422 15.2156 5.35315 14.8137 5.7106 14.5139C6.06806 14.214 6.52351 14.0335 7.00454 14.0009C7.48557 13.9683 7.96456 14.0855 8.36535 14.334V8.22121C8.36537 8.12215 8.40117 8.02594 8.46705 7.94789C8.53293 7.86984 8.6251 7.81443 8.72891 7.79047L16.4041 6.01377C16.4748 5.99698 16.5486 5.99552 16.62 6.00952C16.6913 6.02351 16.7582 6.05257 16.8154 6.09444C16.8728 6.13601 16.9193 6.18913 16.9513 6.24978C16.9833 6.31043 16.9999 6.37702 17 6.44451Z" fill="white"/>
</svg>
