<svg width="13" height="18" viewBox="0 0 13 18" fill="none" xmlns="http://www.w3.org/2000/svg">
<path fill-rule="evenodd" clip-rule="evenodd" d="M0.764644 18C1.18698 18 1.52935 17.6576 1.52935 17.2353L1.52935 10.2544L12.0708 16.4159C12.1649 16.4709 12.2716 16.4999 12.3803 16.5C12.489 16.5001 12.5958 16.4713 12.69 16.4165C12.7842 16.3617 12.8625 16.2828 12.9169 16.1878C12.9713 16.0928 13 15.985 13 15.8752L13 2.12499C13 1.95922 12.9348 1.80025 12.8187 1.68303C12.7026 1.56582 12.5451 1.49998 12.3809 1.49998C12.272 1.5 12.165 1.52911 12.0708 1.58435L1.52935 7.74585L1.52935 0.764707C1.52935 0.34237 1.18698 -8.74621e-07 0.764642 -8.377e-07C0.342306 -8.00778e-07 -6.44862e-05 0.34237 -6.44493e-05 0.764705L-6.30094e-05 17.2353C-6.29724e-05 17.6576 0.342308 18 0.764644 18Z" fill="#4343EF"/>
</svg>
