<svg width="13" height="18" viewBox="0 0 13 18" fill="none" xmlns="http://www.w3.org/2000/svg">
<path fill-rule="evenodd" clip-rule="evenodd" d="M12.2353 -1.06964e-06C11.813 -1.03272e-06 11.4706 0.34237 11.4706 0.764705L11.4706 7.7456L0.929225 1.58413C0.835145 1.52915 0.728383 1.50014 0.619676 1.50004C0.510969 1.49993 0.404151 1.52872 0.309965 1.58352C0.215779 1.63832 0.137545 1.71719 0.0831332 1.8122C0.0287211 1.90722 4.87926e-05 2.01502 1.85753e-07 2.12477L1.38784e-06 15.875C1.40233e-06 16.0408 0.0652248 16.1998 0.181323 16.317C0.297421 16.4342 0.454884 16.5 0.619072 16.5C0.728017 16.5 0.835018 16.4709 0.929226 16.4157L11.4706 10.2542L11.4706 17.2353C11.4706 17.6576 11.813 18 12.2353 18C12.6576 18 13 17.6576 13 17.2353L13 9.00145C13 9.00093 13 9.00041 13 8.9999C13 8.99938 13 8.99886 13 8.99835L13 0.764706C13 0.34237 12.6576 -1.10656e-06 12.2353 -1.06964e-06Z" fill="#4343EF"/>
</svg>
